<svg width="185" height="38" viewBox="0 0 185 38" fill="none" xmlns="http://www.w3.org/2000/svg">
<path d="M19.1 36.5H11.7C10.6 36.5 9.4 36.3333 8.1 36C6.83333 35.6667 5.65 35.1 4.55 34.3C3.45 33.5333 2.53333 32.5167 1.8 31.25C1.1 29.9833 0.75 28.4167 0.75 26.55V10.9C0.75 9.26667 1.06667 7.78333 1.7 6.45C2.33333 5.11667 3.18333 3.98333 4.25 3.05C5.35 2.08333 6.61667 1.35 8.05 0.849998C9.48333 0.316665 11 0.049999 12.6 0.049999H17.7C19.3333 0.049999 20.85 0.316665 22.25 0.849998C23.65 1.35 24.85 2.08333 25.85 3.05C26.8833 3.98333 27.6833 5.11667 28.25 6.45C28.8167 7.75 29.1 9.21667 29.1 10.85V26.7C29.1 28.1667 28.7833 29.5167 28.15 30.75C27.55 31.95 26.75 32.9833 25.75 33.85C24.7833 34.6833 23.7 35.3333 22.5 35.8C21.3333 36.2667 20.2 36.5 19.1 36.5ZM16.4 30.5C18 30.5 19.2833 30.0833 20.25 29.25C21.2167 28.3833 21.7 27.15 21.7 25.55V11.4C21.7 10.7667 21.5833 10.1667 21.35 9.6C21.15 9.03333 20.8333 8.53333 20.4 8.1C19.9667 7.66667 19.4167 7.33333 18.75 7.1C18.1167 6.83333 17.35 6.7 16.45 6.7H13.65C12.75 6.7 11.95 6.83333 11.25 7.1C10.5833 7.36666 10.0167 7.71667 9.55 8.15C9.08333 8.58333 8.73333 9.08333 8.5 9.65C8.26667 10.2167 8.15 10.8167 8.15 11.45V25.55C8.15 26.9167 8.53333 28.0833 9.3 29.05C10.0667 30.0167 11.3833 30.5 13.25 30.5H16.4ZM51.7766 12.75H62.1266L51.6266 36.5H42.4766L31.9266 12.75H40.1766C41.6432 16.15 42.7599 18.7667 43.5266 20.6C44.3266 22.4333 44.8932 23.7833 45.2266 24.65C45.5932 25.4833 45.8099 25.9667 45.8766 26.1C45.9432 26.2333 45.9766 26.3 45.9766 26.3L51.7766 12.75ZM76.4148 12.7C77.5815 12.7 78.6982 12.8833 79.7648 13.25C80.8315 13.6167 81.7648 14.1333 82.5648 14.8C83.3982 15.4667 84.0482 16.3 84.5148 17.3C85.0148 18.2667 85.2648 19.35 85.2648 20.55V26.2H70.4148V28.5C70.4148 28.8 70.4648 29.1667 70.5648 29.6C70.6982 30.0333 70.9148 30.45 71.2148 30.85C71.5148 31.2167 71.9315 31.5333 72.4648 31.8C72.9982 32.0667 73.6815 32.2 74.5148 32.2H76.4648C78.8648 32.2 80.0648 31.1 80.0648 28.9H85.7148V30.4C85.7148 31.6 85.4815 32.6 85.0148 33.4C84.5482 34.1667 83.9315 34.7833 83.1648 35.25C82.3982 35.7167 81.5148 36.0333 80.5148 36.2C79.5148 36.4 78.4815 36.5 77.4148 36.5H72.6148C71.7815 36.5 70.9148 36.3833 70.0148 36.15C69.1482 35.9167 68.3148 35.5167 67.5148 34.95C66.7482 34.4167 66.0815 33.7 65.5148 32.8C64.9482 31.8667 64.5648 30.7333 64.3648 29.4V20.55C64.3648 19.45 64.6148 18.4333 65.1148 17.5C65.6148 16.5333 66.2815 15.7 67.1148 15C67.9482 14.2667 68.9148 13.7 70.0148 13.3C71.1482 12.9 72.3315 12.7 73.5648 12.7H76.4148ZM70.4148 22.45H79.5648V20.95C79.5648 20.5167 79.4482 20.1 79.2148 19.7C79.0148 19.2667 78.7315 18.9 78.3648 18.6C77.9982 18.2667 77.5815 18.0167 77.1148 17.85C76.6482 17.65 76.1815 17.55 75.7148 17.55H74.1148C73.6482 17.55 73.1815 17.65 72.7148 17.85C72.2815 18.0167 71.8815 18.2667 71.5148 18.6C71.1815 18.9 70.9148 19.2667 70.7148 19.7C70.5148 20.1 70.4148 20.5167 70.4148 20.95V22.45ZM108.518 12.6V18.95C107.818 18.95 107.002 18.9833 106.068 19.05C105.135 19.1167 104.135 19.2667 103.068 19.5C102.002 19.7 100.918 20.0167 99.8184 20.45C98.7184 20.8833 97.6517 21.4833 96.6184 22.25V36.5H89.7684V12.7H96.6184V16.05C97.1184 15.6833 97.735 15.3 98.4684 14.9C99.2017 14.5 100.052 14.15 101.018 13.85C102.018 13.5167 103.135 13.2333 104.368 13C105.635 12.7667 107.018 12.6333 108.518 12.6ZM127.436 0.0999984H135.236V26.1C135.236 29.9667 134.253 32.8333 132.286 34.7C130.32 36.6 127.503 37.55 123.836 37.55C120.803 37.55 118.47 37.1167 116.836 36.25C115.203 35.3833 114.003 34.25 113.236 32.85C112.47 31.45 112.02 29.8833 111.886 28.15C111.753 26.3833 111.686 24.6333 111.686 22.9H118.786C118.786 24.3333 118.82 25.5833 118.886 26.65C118.986 27.7167 119.186 28.6167 119.486 29.35C119.786 30.05 120.22 30.5833 120.786 30.95C121.386 31.2833 122.186 31.45 123.186 31.45C124.186 31.45 124.97 31.3 125.536 31C126.103 30.7 126.52 30.3167 126.786 29.85C127.086 29.35 127.27 28.7833 127.336 28.15C127.403 27.4833 127.436 26.8 127.436 26.1V0.0999984ZM146.879 36.5C145.812 36.5 144.779 36.35 143.779 36.05C142.812 35.75 141.962 35.2833 141.229 34.65C140.496 34.05 139.912 33.2833 139.479 32.35C139.046 31.3833 138.829 30.25 138.829 28.95V20.05C138.829 19.0167 139.062 18.05 139.529 17.15C140.029 16.25 140.679 15.4667 141.479 14.8C142.312 14.1333 143.279 13.6167 144.379 13.25C145.479 12.8833 146.646 12.7 147.879 12.7H150.979C152.379 12.7 153.646 12.9 154.779 13.3C155.946 13.7 156.946 14.2333 157.779 14.9C158.612 15.5667 159.246 16.3667 159.679 17.3C160.146 18.2333 160.379 19.2167 160.379 20.25V29.45C160.379 30.4833 160.196 31.4333 159.829 32.3C159.462 33.1667 158.929 33.9 158.229 34.5C157.529 35.1333 156.696 35.6167 155.729 35.95C154.762 36.3167 153.679 36.5 152.479 36.5H146.879ZM150.729 31.95C151.296 31.95 151.779 31.85 152.179 31.65C152.612 31.4167 152.962 31.15 153.229 30.85C153.529 30.5167 153.746 30.1667 153.879 29.8C154.012 29.4 154.079 29.0167 154.079 28.65V21.55C154.079 20.75 153.746 19.9833 153.079 19.25C152.446 18.4833 151.546 18.1 150.379 18.1H148.979C148.512 18.1 148.046 18.1667 147.579 18.3C147.146 18.4333 146.729 18.65 146.329 18.95C145.962 19.2167 145.662 19.5667 145.429 20C145.196 20.4333 145.079 20.9667 145.079 21.6V28.4C145.079 28.6667 145.112 29.0167 145.179 29.45C145.279 29.85 145.446 30.2333 145.679 30.6C145.946 30.9667 146.296 31.2833 146.729 31.55C147.196 31.8167 147.779 31.95 148.479 31.95H150.729ZM174.687 12.65H178.087C178.92 12.65 179.72 12.8 180.487 13.1C181.287 13.4 181.987 13.8333 182.587 14.4C183.187 14.9333 183.67 15.5833 184.037 16.35C184.404 17.0833 184.587 17.9167 184.587 18.85V29.65C184.587 30.6167 184.37 31.5167 183.937 32.35C183.504 33.15 182.937 33.8667 182.237 34.5C181.537 35.1333 180.754 35.6167 179.887 35.95C179.02 36.3167 178.137 36.5 177.237 36.5H174.587C173.754 36.5 173.02 36.3667 172.387 36.1C171.754 35.8667 171.154 35.5333 170.587 35.1V36.5H164.037V0.0999984H170.587V14.1C171.054 13.6667 171.604 13.3167 172.237 13.05C172.904 12.7833 173.72 12.65 174.687 12.65ZM174.487 30.55H176.787C178.054 30.55 178.97 30.25 179.537 29.65C180.104 29.0167 180.387 28.1833 180.387 27.15V20.15C180.387 18.95 180.037 18.0333 179.337 17.4C178.67 16.7667 177.82 16.45 176.787 16.45H174.587C173.32 16.45 172.387 16.8 171.787 17.5C171.22 18.1667 170.937 18.9 170.937 19.7V27.55C170.937 27.95 171.037 28.3333 171.237 28.7C171.47 29.0667 171.754 29.3833 172.087 29.65C172.42 29.9167 172.804 30.1333 173.237 30.3C173.67 30.4667 174.087 30.55 174.487 30.55Z" fill="#5063F0"/>
</svg>
